# xmcd CD database file
#
# Track frame offsets:
#	150
#	19400
#	33752
#	44953
#	72033
#	81646
#	107850
#	129948
#	143448
#	163448
#	194448
#
# Disc length: 2945 seconds
#
# Revision: 1
# Processed by: cddbd v1.5.1PL2 Copyright (c) Steve Scherf et al.
# Submitted via: CDex 1.51
#
DISCID=a00b7f0b
DTITLE=Cis-Trance - 踊る東方レイヴ
DYEAR=1900
DGENRE=未分類 (日本)
TTITLE0=ネクロファンタジア(MAKINA MIX) 【出典：妖々夢】
TTITLE1=ブクレシュティの人形師(BASE MAKINA MIX) 【出典：妖々夢】
TTITLE2=フラワリングナイト(MAKINA MIX) 【出典：花映塚】
TTITLE3=ポイズンボディ 〜 Forsaken Doll(MAKINA MIX) 【出典：花映塚】
TTITLE4=さくらさくら 〜 Japanize Dream...(NU STYLE MIX) 【出典：妖々夢】
TTITLE5=竹取飛翔 〜 Lunatic Princess(HARD NRG MIX) 【出典：永夜抄】
TTITLE6=六十年目の東方裁判 〜 Fate of Sixty Years(MAKINA MIX) 【出典：花映塚】
TTITLE7=東方8bit (地獄魚SPEEDCORE MIX)
TTITLE8=ネクロファンタジア(MAKINA MIX)
TTITLE9=竹取飛翔 〜 Lunatic Princess(HARD NRG MIX)
TTITLE10=六十年目の東方裁判 〜 Fate of Sixty Years(MAKINA MIX)
EXTD=
EXTT0=
EXTT1=
EXTT2=
EXTT3=
EXTT4=
EXTT5=
EXTT6=
EXTT7=
EXTT8=
EXTT9=
EXTT10=
PLAYORDER=
